<?xml version="1.0" encoding="UTF-8" standalone="no"?> <svg width="64" height="64" viewBox="0 0 64 64" fill="none" xmlns="http://www.w3.org/2000/svg">
<path d="M39 49C39.7956 49 40.5587 48.6839 41.1213 48.1213C41.6839 47.5587 42 46.7956 42 46V44C42 43.2044 41.6839 42.4413 41.1213 41.8787C40.5587 41.3161 39.7956 41 39 41H25C24.2044 41 23.4413 41.3161 22.8787 41.8787C22.3161 42.4413 22 43.2044 22 44V46C22 46.7956 22.3161 47.5587 22.8787 48.1213C23.4413 48.6839 24.2044 49 25 49H39ZM28.571 43H35.429C34.7 45.4 33.376 47 32 47C30.624 47 29.3 45.4 28.571 43ZM40 44V46C40 46.2652 39.8946 46.5196 39.7071 46.7071C39.5196 46.8946 39.2652 47 39 47H35.645C36.5388 45.8115 37.1734 44.4489 37.508 43H39C39.2652 43 39.5196 43.1054 39.7071 43.2929C39.8946 43.4804 40 43.7348 40 44ZM24 46V44C24 43.7348 24.1054 43.4804 24.2929 43.2929C24.4804 43.1054 24.7348 43 25 43H26.492C26.8266 44.4489 27.4612 45.8115 28.355 47H25C24.7348 47 24.4804 46.8946 24.2929 46.7071C24.1054 46.5196 24 46.2652 24 46Z" fill="black"/>
<path d="M61 36H59.983C59.8968 32.3706 59.0151 28.8044 57.4 25.553C55.8269 22.4029 55.0054 18.931 55 15.41V9C55.2652 9 55.5196 8.89464 55.7071 8.70711C55.8946 8.51957 56 8.26522 56 8V5C56 4.20435 55.6839 3.44129 55.1213 2.87868C54.5587 2.31607 53.7956 2 53 2H47C46.2044 2 45.4413 2.31607 44.8787 2.87868C44.3161 3.44129 44 4.20435 44 5V7C43.9999 7.18583 44.0516 7.36801 44.1493 7.5261C44.247 7.68419 44.3868 7.81193 44.553 7.895L45 8.118V15.41C44.9946 18.931 44.1731 22.4029 42.6 25.553C41.9447 26.872 41.4093 28.2472 41 29.662C40.5895 28.2476 40.054 26.8726 39.4 25.553C37.8301 22.4017 37.0088 18.9306 37 15.41V9C37.2652 9 37.5196 8.89464 37.7071 8.70711C37.8946 8.51957 38 8.26522 38 8V5C38 4.20435 37.6839 3.44129 37.1213 2.87868C36.5587 2.31607 35.7956 2 35 2H29C28.2044 2 27.4413 2.31607 26.8787 2.87868C26.3161 3.44129 26 4.20435 26 5V7C25.9999 7.18583 26.0516 7.36801 26.1493 7.5261C26.247 7.68419 26.3868 7.81193 26.553 7.895L27 8.118V15.41C26.9935 18.9303 26.1738 22.4016 24.605 25.553C23.9477 26.8734 23.4106 28.2503 23 29.667C22.5904 28.2507 22.0549 26.8739 21.4 25.553C19.8301 22.4017 19.0088 18.9306 19 15.41V9C19.2652 9 19.5196 8.89464 19.7071 8.70711C19.8946 8.51957 20 8.26522 20 8V5C20 4.20435 19.6839 3.44129 19.1213 2.87868C18.5587 2.31607 17.7956 2 17 2H11C10.2044 2 9.44129 2.31607 8.87868 2.87868C8.31607 3.44129 8 4.20435 8 5V7C7.99991 7.18583 8.05161 7.36801 8.14929 7.5261C8.24697 7.68419 8.38677 7.81193 8.553 7.895L9 8.118V15.41C8.99348 18.9303 8.17384 22.4016 6.605 25.553C4.98586 28.8031 4.10227 32.3699 4.017 36H3C2.73478 36 2.48043 36.1054 2.29289 36.2929C2.10536 36.4804 2 36.7348 2 37V61C2 61.2652 2.10536 61.5196 2.29289 61.7071C2.48043 61.8946 2.73478 62 3 62H61C61.2652 62 61.5196 61.8946 61.7071 61.7071C61.8946 61.5196 62 61.2652 62 61V56C62 55.7348 61.8946 55.4804 61.7071 55.2929C61.5196 55.1054 61.2652 55 61 55C60.8225 55.0046 60.6497 55.0575 60.5 55.153C60.3503 55.0575 60.1775 55.0046 60 55H51C50.7348 55 50.4804 55.1054 50.2929 55.2929C50.1054 55.4804 50 55.7348 50 56C50 56.2652 50.1054 56.5196 50.2929 56.7071C50.4804 56.8946 50.7348 57 51 57H60V60H4V57H12C12.2652 57 12.5196 56.8946 12.7071 56.7071C12.8946 56.5196 13 56.2652 13 56C13 55.7348 12.8946 55.4804 12.7071 55.2929C12.5196 55.1054 12.2652 55 12 55H4V50H13C13.2652 50 13.5196 49.8946 13.7071 49.7071C13.8946 49.5196 14 49.2652 14 49C14 48.7348 13.8946 48.4804 13.7071 48.2929C13.5196 48.1054 13.2652 48 13 48H4V43H11C11.2652 43 11.5196 42.8946 11.7071 42.7071C11.8946 42.5196 12 42.2652 12 42C12 41.7348 11.8946 41.4804 11.7071 41.2929C11.5196 41.1054 11.2652 41 11 41H4V38H60V41H53C52.7348 41 52.4804 41.1054 52.2929 41.2929C52.1054 41.4804 52 41.7348 52 42C52 42.2652 52.1054 42.5196 52.2929 42.7071C52.4804 42.8946 52.7348 43 53 43H60V48H54C53.7348 48 53.4804 48.1054 53.2929 48.2929C53.1054 48.4804 53 48.7348 53 49C53 49.2652 53.1054 49.5196 53.2929 49.7071C53.4804 49.8946 53.7348 50 54 50H60V52C60 52.2652 60.1054 52.5196 60.2929 52.7071C60.4804 52.8946 60.7348 53 61 53C61.2652 53 61.5196 52.8946 61.7071 52.7071C61.8946 52.5196 62 52.2652 62 52V37C62 36.7348 61.8946 36.4804 61.7071 36.2929C61.5196 36.1054 61.2652 36 61 36ZM53 11.039C52.0451 11.0724 51.0962 11.2034 50.168 11.43C49.1318 11.684 48.0667 11.801 47 11.778V9C47.1551 9.00014 47.3082 8.9642 47.447 8.895L49 8.118L50.553 8.895C50.6918 8.96436 50.8448 9.00047 51 9.00047C51.1552 9.00047 51.3082 8.96436 51.447 8.895L53 8.118V11.039ZM46 5C46 4.73478 46.1054 4.48043 46.2929 4.29289C46.4804 4.10536 46.7348 4 47 4H53C53.2652 4 53.5196 4.10536 53.7071 4.29289C53.8946 4.48043 54 4.73478 54 5V6.382L53.447 6.105C53.3082 6.03564 53.1552 5.99953 53 5.99953C52.8448 5.99953 52.6918 6.03564 52.553 6.105L51 6.882L49.447 6.105C49.3082 6.03564 49.1552 5.99953 49 5.99953C48.8448 5.99953 48.6918 6.03564 48.553 6.105L47 6.882L46 6.382V5ZM44.4 26.447C46.1071 23.0181 46.9971 19.2404 47 15.41V13.774C47.078 13.774 47.156 13.785 47.233 13.785C48.3871 13.7871 49.537 13.6474 50.657 13.369C51.4252 13.1821 52.21 13.0715 53 13.039V15.41C53.0029 19.2404 53.8929 23.0181 55.6 26.447C57.0809 29.4197 57.8942 32.6801 57.983 36H55.72C54.973 31.836 52.693 29 50 29C47.307 29 45.027 31.836 44.28 36H42.017C42.1058 32.6801 42.9191 29.4197 44.4 26.447V26.447ZM35 11.039C34.0451 11.0724 33.0962 11.2034 32.168 11.43C31.1318 11.684 30.0667 11.801 29 11.778V9C29.1551 9.00014 29.3082 8.9642 29.447 8.895L31 8.118L32.553 8.895C32.6918 8.96436 32.8448 9.00047 33 9.00047C33.1552 9.00047 33.3082 8.96436 33.447 8.895L35 8.118V11.039ZM28 5C28 4.73478 28.1054 4.48043 28.2929 4.29289C28.4804 4.10536 28.7348 4 29 4H35C35.2652 4 35.5196 4.10536 35.7071 4.29289C35.8946 4.48043 36 4.73478 36 5V6.382L35.447 6.105C35.3082 6.03564 35.1552 5.99953 35 5.99953C34.8448 5.99953 34.6918 6.03564 34.553 6.105L33 6.882L31.447 6.105C31.3082 6.03564 31.1552 5.99953 31 5.99953C30.8448 5.99953 30.6918 6.03564 30.553 6.105L29 6.882L28 6.382V5ZM24.613 31.379C25.0161 29.6712 25.6158 28.0158 26.4 26.446C28.105 23.0167 28.9948 19.2398 29 15.41V13.774C29.078 13.774 29.156 13.785 29.233 13.785C30.3871 13.7871 31.537 13.6474 32.657 13.369C33.4252 13.1821 34.21 13.0715 35 13.039V15.41C35.006 19.2397 35.8958 23.0164 37.6 26.446C39.0785 29.4199 39.8916 32.6801 39.983 36H37.729C36.967 31.836 34.683 29 32 29C29.317 29 27.033 31.836 26.271 36H24.017C24.0561 34.4433 24.2558 32.8947 24.613 31.379V31.379ZM35.687 36H28.313C28.934 33.084 30.425 31 32 31C33.575 31 35.066 33.084 35.687 36ZM17 11.039C16.0451 11.0724 15.0962 11.2034 14.168 11.43C13.1318 11.684 12.0667 11.801 11 11.778V9C11.1551 9.00014 11.3082 8.9642 11.447 8.895L13 8.118L14.553 8.895C14.6918 8.96436 14.8448 9.00047 15 9.00047C15.1552 9.00047 15.3082 8.96436 15.447 8.895L17 8.118V11.039ZM10 5C10 4.73478 10.1054 4.48043 10.2929 4.29289C10.4804 4.10536 10.7348 4 11 4H17C17.2652 4 17.5196 4.10536 17.7071 4.29289C17.8946 4.48043 18 4.73478 18 5V6.382L17.447 6.105C17.3082 6.03564 17.1552 5.99953 17 5.99953C16.8448 5.99953 16.6918 6.03564 16.553 6.105L15 6.882L13.447 6.105C13.3082 6.03564 13.1552 5.99953 13 5.99953C12.8448 5.99953 12.6918 6.03564 12.553 6.105L11 6.882L10 6.382V5ZM6.613 31.379C7.01612 29.6712 7.61578 28.0158 8.4 26.446C10.105 23.0167 10.9948 19.2398 11 15.41V13.774C11.078 13.774 11.156 13.785 11.233 13.785C12.3871 13.7871 13.537 13.6474 14.657 13.369C15.4252 13.1821 16.21 13.0715 17 13.039V15.41C17.0076 19.2401 17.899 23.0168 19.605 26.446C21.0817 29.4203 21.8932 32.6805 21.983 36H19.72C18.973 31.836 16.693 29 14 29C11.307 29 9.027 31.836 8.28 36H6.017C6.0561 34.4433 6.25583 32.8947 6.613 31.379V31.379ZM17.68 36H10.32C10.93 33.084 12.42 31 14 31C15.58 31 17.07 33.084 17.68 36ZM46.317 36C46.928 33.083 48.417 31 50 31C51.583 31 53.072 33.083 53.683 36H46.317Z" fill="black"/>
<path d="M19 57H31C31.2652 57 31.5196 56.8946 31.7071 56.7071C31.8946 56.5196 32 56.2652 32 56C32 55.7348 31.8946 55.4804 31.7071 55.2929C31.5196 55.1054 31.2652 55 31 55H19C18.7348 55 18.4804 55.1054 18.2929 55.2929C18.1054 55.4804 18 55.7348 18 56C18 56.2652 18.1054 56.5196 18.2929 56.7071C18.4804 56.8946 18.7348 57 19 57Z" fill="black"/>
<path d="M38 57H45C45.2652 57 45.5196 56.8946 45.7071 56.7071C45.8946 56.5196 46 56.2652 46 56C46 55.7348 45.8946 55.4804 45.7071 55.2929C45.5196 55.1054 45.2652 55 45 55H38C37.7348 55 37.4804 55.1054 37.2929 55.2929C37.1054 55.4804 37 55.7348 37 56C37 56.2652 37.1054 56.5196 37.2929 56.7071C37.4804 56.8946 37.7348 57 38 57Z" fill="black"/>
<path d="M49 42C49 41.7348 48.8946 41.4804 48.7071 41.2929C48.5196 41.1054 48.2652 41 48 41H45C44.7348 41 44.4804 41.1054 44.2929 41.2929C44.1054 41.4804 44 41.7348 44 42C44 42.2652 44.1054 42.5196 44.2929 42.7071C44.4804 42.8946 44.7348 43 45 43H48C48.2652 43 48.5196 42.8946 48.7071 42.7071C48.8946 42.5196 49 42.2652 49 42Z" fill="black"/>
<path d="M19 42C19 41.7348 18.8946 41.4804 18.7071 41.2929C18.5196 41.1054 18.2652 41 18 41H15C14.7348 41 14.4804 41.1054 14.2929 41.2929C14.1054 41.4804 14 41.7348 14 42C14 42.2652 14.1054 42.5196 14.2929 42.7071C14.4804 42.8946 14.7348 43 15 43H18C18.2652 43 18.5196 42.8946 18.7071 42.7071C18.8946 42.5196 19 42.2652 19 42Z" fill="black"/>
<path d="M47 50H50C50.2652 50 50.5196 49.8946 50.7071 49.7071C50.8946 49.5196 51 49.2652 51 49C51 48.7348 50.8946 48.4804 50.7071 48.2929C50.5196 48.1054 50.2652 48 50 48H47C46.7348 48 46.4804 48.1054 46.2929 48.2929C46.1054 48.4804 46 48.7348 46 49C46 49.2652 46.1054 49.5196 46.2929 49.7071C46.4804 49.8946 46.7348 50 47 50Z" fill="black"/>
<path d="M17 50H20C20.2652 50 20.5196 49.8946 20.7071 49.7071C20.8946 49.5196 21 49.2652 21 49C21 48.7348 20.8946 48.4804 20.7071 48.2929C20.5196 48.1054 20.2652 48 20 48H17C16.7348 48 16.4804 48.1054 16.2929 48.2929C16.1054 48.4804 16 48.7348 16 49C16 49.2652 16.1054 49.5196 16.2929 49.7071C16.4804 49.8946 16.7348 50 17 50Z" fill="black"/>
</svg>
