<?xml version="1.0" encoding="utf-8"?><svg xmlns="http://www.w3.org/2000/svg" xmlns:xlink="http://www.w3.org/1999/xlink" width="1534" height="736" preserveAspectRatio="xMidYMid" viewBox="0 0 1534 736" style="z-index:1;margin-right:-1.6px;display:block;background-repeat-y:initial;background-repeat-x:initial;background-color:rgb(241, 242, 243);animation-play-state:paused" ><g transform="translate(767,368) scale(1,1) translate(-767,-368)" style="transform:matrix(1, 0, 0, 1, 0, 0);animation-play-state:paused" ><linearGradient id="lg-0.8650520333711613" x1="0" x2="1" y1="0" y2="0" style="animation-play-state:paused" ><stop stop-color="#32cd32" offset="0" style="animation-play-state:paused" ></stop>

  
<stop stop-color="#00ffff" offset="1" style="animation-play-state:paused" ></stop></linearGradient>
<path d="M 0 0 M 0 679.768 Q 153.4 642.929 306.8 635.979 T 613.6 652.876 T 920.4 582.39 T 1227.2 565.252 T 1534 515.782 L 1534 210.813 Q 1380.6 211.001 1227.2 204.089 T 920.4 110.065 T 613.6 105.036 T 306.8 90.4686 T 0 79.3959 Z" fill="url(#lg-0.8650520333711613)" opacity="0.4" style="opacity:0.4;animation-play-state:paused" ></path>
<path d="M 0 0 M 0 626.885 Q 153.4 630.172 306.8 627.353 T 613.6 601.796 T 920.4 567.221 T 1227.2 542.006 T 1534 535.613 L 1534 211.419 Q 1380.6 156.305 1227.2 154.863 T 920.4 127.337 T 613.6 157.264 T 306.8 116.723 T 0 66.8678 Z" fill="url(#lg-0.8650520333711613)" opacity="0.4" style="opacity:0.4;animation-play-state:paused" ></path>
<path d="M 0 0 M 0 633.728 Q 153.4 632.581 306.8 628.04 T 613.6 635.386 T 920.4 601.544 T 1227.2 533.528 T 1534 545.621 L 1534 219.501 Q 1380.6 208.016 1227.2 201.892 T 920.4 130.103 T 613.6 119.581 T 306.8 97.9011 T 0 80.9683 Z" fill="url(#lg-0.8650520333711613)" opacity="0.4" style="opacity:0.4;animation-play-state:paused" ></path>
<path d="M 0 0 M 0 653.822 Q 153.4 643.991 306.8 636.006 T 613.6 616.199 T 920.4 555.52 T 1227.2 585.878 T 1534 495.152 L 1534 192.377 Q 1380.6 161.514 1227.2 156.855 T 920.4 159.331 T 613.6 101.573 T 306.8 74.2733 T 0 93.5571 Z" fill="url(#lg-0.8650520333711613)" opacity="0.4" style="opacity:0.4;animation-play-state:paused" ></path></g></svg>