<?xml version="1.0" encoding="UTF-8" standalone="no"?> <svg width="64" height="64" viewBox="0 0 64 64" fill="none" xmlns="http://www.w3.org/2000/svg">
<path d="M12 8C11.7348 8 11.4804 8.10536 11.2929 8.29289C11.1054 8.48043 11 8.73478 11 9C11 9.26522 11.1054 9.51957 11.2929 9.70711C11.4804 9.89464 11.7348 10 12 10H52C52.2652 10 52.5196 9.89464 52.7071 9.70711C52.8946 9.51957 53 9.26522 53 9C53 8.73478 52.8946 8.48043 52.7071 8.29289C52.5196 8.10536 52.2652 8 52 8H12Z" fill="black"/>
<path d="M56 45C55.7348 45 55.4804 45.1054 55.2929 45.2929C55.1054 45.4804 55 45.7348 55 46V50H12C11.7348 50 11.4804 50.1054 11.2929 50.2929C11.1054 50.4804 11 50.7348 11 51C11 51.2652 11.1054 51.5196 11.2929 51.7071C11.4804 51.8946 11.7348 52 12 52H55V59.382L52.447 58.105C52.3082 58.0356 52.1552 57.9995 52 57.9995C51.8448 57.9995 51.6918 58.0356 51.553 58.105L47.553 60.105C47.3156 60.2236 47.1351 60.4315 47.0511 60.6832C46.967 60.9349 46.9864 61.2096 47.105 61.447C47.2236 61.6844 47.4315 61.8649 47.6832 61.9489C47.9349 62.033 48.2096 62.0136 48.447 61.895L52 60.118L55.553 61.9C55.7059 61.9764 55.8758 62.0123 56.0465 62.0044C56.2172 61.9965 56.383 61.9449 56.5282 61.8546C56.6733 61.7644 56.7929 61.6384 56.8755 61.4888C56.9581 61.3392 57.0009 61.1709 57 61V46C57 45.7348 56.8946 45.4804 56.7071 45.2929C56.5196 45.1054 56.2652 45 56 45Z" fill="black"/>
<path d="M43.553 58.105L40 59.882L36.447 58.105C36.3082 58.0356 36.1552 57.9995 36 57.9995C35.8448 57.9995 35.6918 58.0356 35.553 58.105L32 59.882L28.447 58.105C28.3082 58.0356 28.1552 57.9995 28 57.9995C27.8448 57.9995 27.6918 58.0356 27.553 58.105L24 59.882L20.447 58.105C20.3082 58.0356 20.1552 57.9995 20 57.9995C19.8448 57.9995 19.6918 58.0356 19.553 58.105L16 59.882L12.447 58.105C12.3082 58.0356 12.1552 57.9995 12 57.9995C11.8448 57.9995 11.6918 58.0356 11.553 58.105L9 59.382V51.091L10 40.091C10.0069 40.01 10.0042 39.9284 9.992 39.848L8.005 26.959L8.929 14H52C52.2652 14 52.5196 13.8946 52.7071 13.7071C52.8946 13.5196 53 13.2652 53 13C53 12.7348 52.8946 12.4804 52.7071 12.2929C52.5196 12.1054 52.2652 12 52 12H9V4.618L11.553 5.9C11.6918 5.96936 11.8448 6.00547 12 6.00547C12.1552 6.00547 12.3082 5.96936 12.447 5.9L16 4.118L19.553 5.9C19.6918 5.96936 19.8448 6.00547 20 6.00547C20.1552 6.00547 20.3082 5.96936 20.447 5.9L24 4.118L27.553 5.9C27.6918 5.96936 27.8448 6.00547 28 6.00547C28.1552 6.00547 28.3082 5.96936 28.447 5.9L32 4.118L35.553 5.9C35.6918 5.96936 35.8448 6.00547 36 6.00547C36.1552 6.00547 36.3082 5.96936 36.447 5.9L40 4.118L43.553 5.9C43.6918 5.96936 43.8448 6.00547 44 6.00547C44.1552 6.00547 44.3082 5.96936 44.447 5.9L48 4.118L51.553 5.9C51.6918 5.96936 51.8448 6.00547 52 6.00547C52.1552 6.00547 52.3082 5.96936 52.447 5.9L55 4.618V13C55 13.024 55.012 13.045 55.014 13.069C55.016 13.093 55.006 13.117 55.014 13.142L56.994 27.005L55.009 41.868C54.9885 41.9996 54.9945 42.134 55.0266 42.2632C55.0587 42.3925 55.1163 42.514 55.1961 42.6207C55.2758 42.7274 55.3761 42.8171 55.4909 42.8845C55.6058 42.9519 55.733 42.9957 55.865 43.0133C55.9971 43.0309 56.1313 43.0219 56.2598 42.9869C56.3883 42.9519 56.5085 42.8916 56.6134 42.8095C56.7183 42.7274 56.8057 42.6252 56.8706 42.5089C56.9354 42.3925 56.9764 42.2644 56.991 42.132L58.991 27.132C59.0035 27.0411 59.0035 26.9489 58.991 26.858L57 12.927V3C57.0001 2.82952 56.9566 2.66186 56.8736 2.51293C56.7907 2.364 56.671 2.23874 56.526 2.14907C56.381 2.05939 56.2155 2.00827 56.0452 2.00056C55.8749 1.99285 55.7055 2.0288 55.553 2.105L52 3.882L48.447 2.105C48.3082 2.03564 48.1552 1.99953 48 1.99953C47.8448 1.99953 47.6918 2.03564 47.553 2.105L44 3.882L40.447 2.105C40.3082 2.03564 40.1552 1.99953 40 1.99953C39.8448 1.99953 39.6918 2.03564 39.553 2.105L36 3.882L32.447 2.105C32.3082 2.03564 32.1552 1.99953 32 1.99953C31.8448 1.99953 31.6918 2.03564 31.553 2.105L28 3.882L24.447 2.105C24.3082 2.03564 24.1552 1.99953 24 1.99953C23.8448 1.99953 23.6918 2.03564 23.553 2.105L20 3.882L16.447 2.105C16.3082 2.03564 16.1552 1.99953 16 1.99953C15.8448 1.99953 15.6918 2.03564 15.553 2.105L12 3.882L8.447 2.105C8.2945 2.0288 8.12506 1.99285 7.95475 2.00056C7.78445 2.00827 7.61895 2.05939 7.47397 2.14907C7.32898 2.23874 7.20933 2.364 7.12638 2.51293C7.04342 2.66186 6.99992 2.82952 7 3V12.929L6 26.929C5.99484 27.0035 5.99819 27.0783 6.01 27.152L7.993 40.031L7 51V61C6.99906 61.1709 7.04194 61.3392 7.12454 61.4888C7.20714 61.6384 7.32671 61.7644 7.47183 61.8546C7.61695 61.9449 7.78279 61.9965 7.9535 62.0044C8.12422 62.0123 8.29412 61.9764 8.447 61.9L12 60.118L15.553 61.9C15.6918 61.9694 15.8448 62.0055 16 62.0055C16.1552 62.0055 16.3082 61.9694 16.447 61.9L20 60.118L23.553 61.9C23.6918 61.9694 23.8448 62.0055 24 62.0055C24.1552 62.0055 24.3082 61.9694 24.447 61.9L28 60.118L31.553 61.9C31.6918 61.9694 31.8448 62.0055 32 62.0055C32.1552 62.0055 32.3082 61.9694 32.447 61.9L36 60.118L39.553 61.9C39.6918 61.9694 39.8448 62.0055 40 62.0055C40.1552 62.0055 40.3082 61.9694 40.447 61.9L44.447 59.9C44.5645 59.8413 44.6694 59.76 44.7555 59.6608C44.8416 59.5616 44.9073 59.4464 44.9489 59.3218C44.9905 59.1972 45.0072 59.0656 44.9979 58.9345C44.9887 58.8035 44.9537 58.6755 44.895 58.558C44.8363 58.4405 44.755 58.3356 44.6558 58.2495C44.5566 58.1634 44.4414 58.0977 44.3168 58.0561C44.0651 57.972 43.7904 57.9914 43.553 58.11V58.105Z" fill="black"/>
<path d="M50 28C50.0016 26.4922 49.5767 25.0146 48.7741 23.7381C47.9716 22.4616 46.8243 21.4381 45.4647 20.7861C44.1051 20.134 42.5888 19.8799 41.091 20.0531C39.5931 20.2264 38.1748 20.8198 37 21.765C35.5838 20.6229 33.8193 20.0001 32 20.0001C30.1807 20.0001 28.4162 20.6229 27 21.765C25.5857 20.6195 23.82 19.9962 22 20C20.8813 20 19.7751 20.2347 18.7528 20.6888C17.7304 21.1429 16.8147 21.8064 16.0647 22.6364C15.3147 23.4664 14.7471 24.4445 14.3985 25.5074C14.05 26.5704 13.9282 27.6947 14.0412 28.8076C14.1541 29.9206 14.4992 30.9975 15.0542 31.9688C15.6091 32.9401 16.3616 33.7842 17.2631 34.4466C18.1645 35.109 19.1949 35.575 20.2876 35.8145C21.3803 36.054 22.5111 36.0617 23.607 35.837C23.7382 35.8135 23.8635 35.7639 23.9753 35.6913C24.0871 35.6187 24.1833 35.5244 24.2582 35.414C24.333 35.3037 24.385 35.1795 24.4112 35.0487C24.4373 34.9179 24.437 34.7833 24.4104 34.6526C24.3837 34.522 24.3311 34.398 24.2558 34.2879C24.1805 34.1779 24.084 34.084 23.9718 34.0118C23.8597 33.9397 23.7343 33.8906 23.6029 33.8677C23.4716 33.8447 23.337 33.8482 23.207 33.878C22.3852 34.0463 21.5373 34.0404 20.718 33.8607C19.8986 33.6811 19.126 33.3316 18.4501 32.8348C17.7742 32.3381 17.2099 31.7052 16.7938 30.9769C16.3776 30.2486 16.1187 29.4411 16.0339 28.6066C15.9491 27.7721 16.0403 26.929 16.3014 26.1319C16.5626 25.3348 16.988 24.6013 17.5502 23.9787C18.1124 23.3562 18.7989 22.8584 19.5653 22.5176C20.3318 22.1768 21.1612 22.0005 22 22C23.3023 21.9984 24.569 22.425 25.605 23.214C24.712 24.4008 24.1677 25.8131 24.0333 27.2922C23.8988 28.7713 24.1795 30.2586 24.8439 31.5869C25.5083 32.9152 26.53 34.0319 27.7941 34.8115C29.0583 35.5911 30.5148 36.0027 32 36C32.5398 35.9997 33.0781 35.945 33.607 35.837C33.7382 35.8135 33.8635 35.7639 33.9753 35.6913C34.0871 35.6187 34.1833 35.5244 34.2582 35.414C34.333 35.3037 34.385 35.1795 34.4112 35.0487C34.4373 34.9179 34.437 34.7833 34.4104 34.6526C34.3837 34.522 34.3311 34.398 34.2558 34.2879C34.1805 34.1779 34.084 34.084 33.9718 34.0118C33.8597 33.9397 33.7343 33.8906 33.6029 33.8677C33.4716 33.8447 33.337 33.8482 33.207 33.878C32.3852 34.0463 31.5373 34.0404 30.718 33.8607C29.8986 33.6811 29.126 33.3316 28.4501 32.8348C27.7742 32.3381 27.2099 31.7052 26.7938 30.9769C26.3776 30.2486 26.1187 29.4411 26.0339 28.6066C25.9491 27.7721 26.0403 26.929 26.3014 26.1319C26.5626 25.3348 26.988 24.6013 27.5502 23.9787C28.1124 23.3562 28.7989 22.8584 29.5653 22.5176C30.3318 22.1768 31.1612 22.0005 32 22C33.3006 21.9995 34.5653 22.426 35.6 23.214C34.8422 24.2283 34.3362 25.4082 34.1235 26.6563C33.9109 27.9045 33.9978 29.1853 34.3769 30.3933C34.7561 31.6014 35.4168 32.7021 36.3046 33.6048C37.1924 34.5076 38.2819 35.1866 39.4834 35.5859C40.6849 35.9853 41.9641 36.0935 43.2156 35.9018C44.4672 35.7101 45.6553 35.2238 46.6822 34.4831C47.709 33.7424 48.5453 32.7684 49.1221 31.6413C49.699 30.5142 49.9998 29.2661 50 28ZM42 34C40.8133 34 39.6533 33.6481 38.6666 32.9888C37.6799 32.3295 36.9108 31.3925 36.4567 30.2961C36.0026 29.1997 35.8838 27.9933 36.1153 26.8295C36.3468 25.6656 36.9182 24.5965 37.7573 23.7574C38.5965 22.9182 39.6656 22.3468 40.8294 22.1153C41.9933 21.8838 43.1997 22.0026 44.2961 22.4567C45.3924 22.9108 46.3295 23.6799 46.9888 24.6666C47.6481 25.6533 48 26.8133 48 28C47.9984 29.5908 47.3657 31.116 46.2409 32.2409C45.116 33.3658 43.5908 33.9984 42 34Z" fill="black"/>
<path d="M44 27C44.5523 27 45 26.5523 45 26C45 25.4477 44.5523 25 44 25C43.4477 25 43 25.4477 43 26C43 26.5523 43.4477 27 44 27Z" fill="black"/>
<path d="M44 31C44.5523 31 45 30.5523 45 30C45 29.4477 44.5523 29 44 29C43.4477 29 43 29.4477 43 30C43 30.5523 43.4477 31 44 31Z" fill="black"/>
<path d="M40 29C40.5523 29 41 28.5523 41 28C41 27.4477 40.5523 27 40 27C39.4477 27 39 27.4477 39 28C39 28.5523 39.4477 29 40 29Z" fill="black"/>
<path d="M31 26C31.5523 26 32 25.5523 32 25C32 24.4477 31.5523 24 31 24C30.4477 24 30 24.4477 30 25C30 25.5523 30.4477 26 31 26Z" fill="black"/>
<path d="M30 31C30.5523 31 31 30.5523 31 30C31 29.4477 30.5523 29 30 29C29.4477 29 29 29.4477 29 30C29 30.5523 29.4477 31 30 31Z" fill="black"/>
<path d="M21 32C21.5523 32 22 31.5523 22 31C22 30.4477 21.5523 30 21 30C20.4477 30 20 30.4477 20 31C20 31.5523 20.4477 32 21 32Z" fill="black"/>
<path d="M19 29C19.5523 29 20 28.5523 20 28C20 27.4477 19.5523 27 19 27C18.4477 27 18 27.4477 18 28C18 28.5523 18.4477 29 19 29Z" fill="black"/>
<path d="M22 26C22.5523 26 23 25.5523 23 25C23 24.4477 22.5523 24 22 24C21.4477 24 21 24.4477 21 25C21 25.5523 21.4477 26 22 26Z" fill="black"/>
<path d="M44 41C44 40.7348 43.8946 40.4804 43.7071 40.2929C43.5196 40.1054 43.2652 40 43 40H22C21.7348 40 21.4804 40.1054 21.2929 40.2929C21.1054 40.4804 21 40.7348 21 41C21 41.2652 21.1054 41.5196 21.2929 41.7071C21.4804 41.8946 21.7348 42 22 42H43C43.2652 42 43.5196 41.8946 43.7071 41.7071C43.8946 41.5196 44 41.2652 44 41Z" fill="black"/>
<path d="M22 45C21.7348 45 21.4804 45.1054 21.2929 45.2929C21.1054 45.4804 21 45.7348 21 46C21 46.2652 21.1054 46.5196 21.2929 46.7071C21.4804 46.8946 21.7348 47 22 47H31C31.2652 47 31.5196 46.8946 31.7071 46.7071C31.8946 46.5196 32 46.2652 32 46C32 45.7348 31.8946 45.4804 31.7071 45.2929C31.5196 45.1054 31.2652 45 31 45H22Z" fill="black"/>
<path d="M36 45C35.7348 45 35.4804 45.1054 35.2929 45.2929C35.1054 45.4804 35 45.7348 35 46C35 46.2652 35.1054 46.5196 35.2929 46.7071C35.4804 46.8946 35.7348 47 36 47H39C39.2652 47 39.5196 46.8946 39.7071 46.7071C39.8946 46.5196 40 46.2652 40 46C40 45.7348 39.8946 45.4804 39.7071 45.2929C39.5196 45.1054 39.2652 45 39 45H36Z" fill="black"/>
<path d="M52 56C52.2652 56 52.5196 55.8946 52.7071 55.7071C52.8946 55.5196 53 55.2652 53 55C53 54.7348 52.8946 54.4804 52.7071 54.2929C52.5196 54.1054 52.2652 54 52 54H12C11.7348 54 11.4804 54.1054 11.2929 54.2929C11.1054 54.4804 11 54.7348 11 55C11 55.2652 11.1054 55.5196 11.2929 55.7071C11.4804 55.8946 11.7348 56 12 56H52Z" fill="black"/>
</svg>
